<svg xmlns="http://www.w3.org/2000/svg" width="64" height="64" viewBox="0 0 64 64" fill="none">
  <g clip-path="url(#clip0_5363_1253)">
    <path
      d="M36.9726 42.5505H37.5653C37.5653 42.5505 47.1736 42.57 47.3044 42.5505L53.3705 41.4375C54.0111 41.3202 54.5904 40.982 55.0073 40.4817C55.4242 39.9814 55.6525 39.3506 55.6522 38.6994V23.5787C55.6522 23.0193 55.4836 22.4729 55.1684 22.0108C54.8532 21.5486 54.4061 21.1922 53.8853 20.9881L39.847 15.4869C39.1551 15.2162 38.4034 15.1351 37.6697 15.252C36.9359 15.3689 36.2467 15.6796 35.6731 16.1519L25.4749 24.5415C25.088 24.8582 24.8243 25.3003 24.7294 25.7912C24.6346 26.2821 24.7146 26.7906 24.9556 27.2287C25.1966 27.6667 25.5833 28.0065 26.0487 28.1891C26.5141 28.3718 27.0288 28.3857 27.5034 28.2284L38.9566 24.4636"
      stroke="currentColor" stroke-width="var(--stroke-width, 3)" stroke-linecap="round" stroke-linejoin="round" />
    <path
      d="M8.34778 36.9853L15.5826 38.3766L25.5582 48.3523C25.8731 48.6676 26.2591 48.9028 26.6838 49.0379C27.1084 49.173 27.5594 49.2041 27.9986 49.1286L29.3899 48.8865C29.9566 48.7891 30.4791 48.5184 30.8857 48.1118C31.2923 47.7052 31.563 47.1826 31.6605 46.6159L32.1447 43.7971L36.9001 42.9763L37.721 38.2236L42.4765 37.4027L43.2946 32.6472L36.0598 25.4124"
      stroke="currentColor" stroke-width="var(--stroke-width, 3)" stroke-linecap="round" stroke-linejoin="round" />
    <path
      d="M30.8034 20.1561L26.688 16.0434C26.2989 15.653 25.8027 15.3869 25.2622 15.2789C24.7217 15.1709 24.1613 15.2259 23.6521 15.4368L15.3043 18.8983L8.34778 20.2896"
      stroke="currentColor" stroke-width="var(--stroke-width, 3)" stroke-linecap="round" stroke-linejoin="round" />
    <path
      d="M0 16.1157H5.56522C6.30321 16.1157 7.01098 16.4089 7.53282 16.9307C8.05466 17.4526 8.34783 18.1603 8.34783 18.8983V38.3766C8.34783 39.1146 8.05466 39.8224 7.53282 40.3442C7.01098 40.866 6.30321 41.1592 5.56522 41.1592H0V16.1157Z"
      stroke="currentColor" stroke-width="var(--stroke-width, 3)" stroke-linecap="round" stroke-linejoin="round" />
    <path
      d="M58.4347 18.8983H63.9999V43.9418H58.4347C57.6967 43.9418 56.9889 43.6487 56.4671 43.1268C55.9453 42.605 55.6521 41.8972 55.6521 41.1592V21.681C55.6521 20.943 55.9453 20.2352 56.4671 19.7134C56.9889 19.1915 57.6967 18.8983 58.4347 18.8983Z"
      stroke="currentColor" stroke-width="var(--stroke-width, 3)" stroke-linecap="round" stroke-linejoin="round" />
  </g>
  <defs>
    <clipPath id="clip0_5363_1253">
      <rect width="64" height="64" fill="currentColor" />
    </clipPath>
  </defs>
</svg>