<svg width="24" height="24" viewBox="0 0 24 24" fill="none" xmlns="http://www.w3.org/2000/svg">
<path d="M2 19V5C2 4.46957 2.21071 3.96086 2.58579 3.58579C2.96086 3.21071 3.46957 3 4 3H9L11 6H18C18.5304 6 19.0391 6.21071 19.4142 6.58579C19.7893 6.96086 20 7.46957 20 8V10" stroke="currentColor" stroke-width="var(--stroke-width, 1.5)" stroke-linecap="round" stroke-linejoin="round"/>
<path d="M21.4142 20.463C21.7893 20.1192 22 19.6529 22 19.1667L23 11.8333C23 11.3471 22.7893 10.8808 22.4142 10.537C22.0391 10.1932 21.5304 10 21 10H5C4.46957 10 3.96086 10.1932 3.58579 10.537C3.21071 10.8808 3 11.3471 3 11.8333L2 19.1667C2 19.6529 2.21071 20.1192 2.58579 20.463C2.96086 20.8068 3.46957 21 4 21H20C20.5304 21 21.0391 20.8068 21.4142 20.463Z" stroke="currentColor" stroke-width="var(--stroke-width, 1.5)" stroke-linecap="round" stroke-linejoin="round"/>
</svg>
