<svg width="24" height="24" viewBox="0 0 24 24" fill="none" xmlns="http://www.w3.org/2000/svg">
<path d="M2 19V5C2 4.46957 2.21071 3.96086 2.58579 3.58579C2.96086 3.21071 3.46957 3 4 3H9L11 6H20C20.5304 6 21.0391 6.21071 21.4142 6.58579C21.7893 6.96086 22 7.46957 22 8C22 8.53043 22 12 22 12" stroke="currentColor" stroke-width="var(--stroke-width, 1.5)" stroke-linecap="round" stroke-linejoin="round"/>
<path d="M21.4142 20.463C21.7893 20.1192 22 19.6529 22 19.1667V11.8333C22 11.3471 21.7893 10.8808 21.4142 10.537C21.0391 10.1932 20.5304 10 20 10H4C3.46957 10 2.96086 10.1932 2.58579 10.537C2.21071 10.8808 2 11.3471 2 11.8333V19.1667C2 19.6529 2.21071 20.1192 2.58579 20.463C2.96086 20.8068 3.46957 21 4 21H20C20.5304 21 21.0391 20.8068 21.4142 20.463Z" stroke="currentColor" stroke-width="var(--stroke-width, 1.5)" stroke-linecap="round" stroke-linejoin="round"/>
</svg>
