<!-- TODO: add icon to figma library -->
<svg width="41" height="41" viewBox="0 0 41 41" fill="none" xmlns="http://www.w3.org/2000/svg">
  <path d="M9.85742 19.6809V31.1809L19.3574 35.1809L29.8574 31.1809V20.6809" stroke="currentColor"
    stroke-width="var(--stroke-width, 2)" stroke-linecap="round" />
  <path
    d="M19.9284 7.99179C20.1999 7.86283 20.515 7.86283 20.7865 7.99179L36.1251 15.2776C36.8863 15.6392 36.8863 16.7226 36.1251 17.0842L20.7865 24.37C20.515 24.499 20.1999 24.499 19.9284 24.37L4.58975 17.0842C3.82849 16.7226 3.82849 15.6392 4.58975 15.2776L19.9284 7.99179Z"
    stroke="currentColor" stroke-width="var(--stroke-width, 2)" />
  <path
    d="M35.3574 25.6809C35.3574 26.2332 35.8051 26.6809 36.3574 26.6809C36.9097 26.6809 37.3574 26.2332 37.3574 25.6809H35.3574ZM36.3574 19.1809H37.3574H36.3574ZM35.3574 19.1809V25.6809H37.3574V19.1809H35.3574ZM35.1503 16.388C35.2922 16.5299 35.328 16.5688 35.3465 16.5934C35.3486 16.5962 35.342 16.5876 35.3341 16.5712C35.3262 16.5548 35.3239 16.5448 35.3248 16.5484C35.3299 16.569 35.3431 16.6404 35.3502 16.8416C35.3573 17.0383 35.3574 17.2984 35.3574 17.6809H37.3574C37.3574 17.3134 37.3576 17.011 37.349 16.7702C37.3405 16.5339 37.3224 16.2928 37.2651 16.0634C37.1256 15.5056 36.7885 15.1977 36.5645 14.9738L35.1503 16.388ZM35.3574 17.6809C35.3574 17.6838 35.3574 17.6868 35.3574 17.6897C35.3574 17.6926 35.3574 17.6955 35.3574 17.6984C35.3574 17.7013 35.3574 17.7042 35.3574 17.7071C35.3574 17.71 35.3574 17.7129 35.3574 17.7158C35.3574 17.7187 35.3574 17.7216 35.3574 17.7244C35.3574 17.7273 35.3574 17.7302 35.3574 17.733C35.3574 17.7359 35.3574 17.7387 35.3574 17.7416C35.3574 17.7444 35.3574 17.7473 35.3574 17.7501C35.3574 17.753 35.3574 17.7558 35.3574 17.7586C35.3574 17.7615 35.3574 17.7643 35.3574 17.7671C35.3574 17.7699 35.3574 17.7727 35.3574 17.7755C35.3574 17.7783 35.3574 17.7811 35.3574 17.7839C35.3574 17.7867 35.3574 17.7895 35.3574 17.7923C35.3574 17.7951 35.3574 17.7978 35.3574 17.8006C35.3574 17.8034 35.3574 17.8062 35.3574 17.8089C35.3574 17.8117 35.3574 17.8144 35.3574 17.8172C35.3574 17.8199 35.3574 17.8227 35.3574 17.8254C35.3574 17.8282 35.3574 17.8309 35.3574 17.8336C35.3574 17.8363 35.3574 17.8391 35.3574 17.8418C35.3574 17.8445 35.3574 17.8472 35.3574 17.8499C35.3574 17.8526 35.3574 17.8553 35.3574 17.858C35.3574 17.8607 35.3574 17.8634 35.3574 17.8661C35.3574 17.8688 35.3574 17.8714 35.3574 17.8741C35.3574 17.8768 35.3574 17.8795 35.3574 17.8821C35.3574 17.8848 35.3574 17.8874 35.3574 17.8901C35.3574 17.8927 35.3574 17.8954 35.3574 17.898C35.3574 17.9007 35.3574 17.9033 35.3574 17.9059C35.3574 17.9085 35.3574 17.9112 35.3574 17.9138C35.3574 17.9164 35.3574 17.919 35.3574 17.9216C35.3574 17.9242 35.3574 17.9268 35.3574 17.9294C35.3574 17.932 35.3574 17.9346 35.3574 17.9372C35.3574 17.9398 35.3574 17.9424 35.3574 17.9449C35.3574 17.9475 35.3574 17.9501 35.3574 17.9527C35.3574 17.9552 35.3574 17.9578 35.3574 17.9603C35.3574 17.9629 35.3574 17.9654 35.3574 17.968C35.3574 17.9705 35.3574 17.9731 35.3574 17.9756C35.3574 17.9781 35.3574 17.9806 35.3574 17.9832C35.3574 17.9857 35.3574 17.9882 35.3574 17.9907C35.3574 17.9932 35.3574 17.9957 35.3574 17.9982C35.3574 18.0007 35.3574 18.0032 35.3574 18.0057C35.3574 18.0082 35.3574 18.0107 35.3574 18.0132C35.3574 18.0157 35.3574 18.0181 35.3574 18.0206C35.3574 18.0231 35.3574 18.0255 35.3574 18.028C35.3574 18.0304 35.3574 18.0329 35.3574 18.0353C35.3574 18.0378 35.3574 18.0402 35.3574 18.0427C35.3574 18.0451 35.3574 18.0475 35.3574 18.05C35.3574 18.0524 35.3574 18.0548 35.3574 18.0572C35.3574 18.0597 35.3574 18.0621 35.3574 18.0645C35.3574 18.0669 35.3574 18.0693 35.3574 18.0717C35.3574 18.0741 35.3574 18.0765 35.3574 18.0788C35.3574 18.0812 35.3574 18.0836 35.3574 18.086C35.3574 18.0884 35.3574 18.0907 35.3574 18.0931C35.3574 18.0955 35.3574 18.0978 35.3574 18.1002C35.3574 18.1025 35.3574 18.1049 35.3574 18.1072C35.3574 18.1096 35.3574 18.1119 35.3574 18.1142C35.3574 18.1166 35.3574 18.1189 35.3574 18.1212C35.3574 18.1235 35.3574 18.1259 35.3574 18.1282C35.3574 18.1305 35.3574 18.1328 35.3574 18.1351C35.3574 18.1374 35.3574 18.1397 35.3574 18.142C35.3574 18.1443 35.3574 18.1466 35.3574 18.1489C35.3574 18.1512 35.3574 18.1534 35.3574 18.1557C35.3574 18.158 35.3574 18.1602 35.3574 18.1625C35.3574 18.1648 35.3574 18.167 35.3574 18.1693C35.3574 18.1715 35.3574 18.1738 35.3574 18.176C35.3574 18.1783 35.3574 18.1805 35.3574 18.1827C35.3574 18.185 35.3574 18.1872 35.3574 18.1894C35.3574 18.1916 35.3574 18.1939 35.3574 18.1961C35.3574 18.1983 35.3574 18.2005 35.3574 18.2027C35.3574 18.2049 35.3574 18.2071 35.3574 18.2093C35.3574 18.2115 35.3574 18.2137 35.3574 18.2159C35.3574 18.218 35.3574 18.2202 35.3574 18.2224C35.3574 18.2246 35.3574 18.2267 35.3574 18.2289C35.3574 18.2311 35.3574 18.2332 35.3574 18.2354C35.3574 18.2375 35.3574 18.2397 35.3574 18.2418C35.3574 18.244 35.3574 18.2461 35.3574 18.2482C35.3574 18.2504 35.3574 18.2525 35.3574 18.2546C35.3574 18.2568 35.3574 18.2589 35.3574 18.261C35.3574 18.2631 35.3574 18.2652 35.3574 18.2673C35.3574 18.2694 35.3574 18.2715 35.3574 18.2736C35.3574 18.2757 35.3574 18.2778 35.3574 18.2799C35.3574 18.282 35.3574 18.2841 35.3574 18.2861C35.3574 18.2882 35.3574 18.2903 35.3574 18.2923C35.3574 18.2944 35.3574 18.2965 35.3574 18.2985C35.3574 18.3006 35.3574 18.3026 35.3574 18.3047C35.3574 18.3067 35.3574 18.3088 35.3574 18.3108C35.3574 18.3129 35.3574 18.3149 35.3574 18.3169C35.3574 18.3189 35.3574 18.321 35.3574 18.323C35.3574 18.325 35.3574 18.327 35.3574 18.329C35.3574 18.331 35.3574 18.333 35.3574 18.335C35.3574 18.337 35.3574 18.339 35.3574 18.341C35.3574 18.343 35.3574 18.345 35.3574 18.347C35.3574 18.349 35.3574 18.3509 35.3574 18.3529C35.3574 18.3549 35.3574 18.3568 35.3574 18.3588C35.3574 18.3608 35.3574 18.3627 35.3574 18.3647C35.3574 18.3666 35.3574 18.3686 35.3574 18.3705C35.3574 18.3725 35.3574 18.3744 35.3574 18.3763C35.3574 18.3783 35.3574 18.3802 35.3574 18.3821C35.3574 18.3841 35.3574 18.386 35.3574 18.3879C35.3574 18.3898 35.3574 18.3917 35.3574 18.3936C35.3574 18.3955 35.3574 18.3974 35.3574 18.3993C35.3574 18.4012 35.3574 18.4031 35.3574 18.405C35.3574 18.4069 35.3574 18.4088 35.3574 18.4107C35.3574 18.4125 35.3574 18.4144 35.3574 18.4163C35.3574 18.4181 35.3574 18.42 35.3574 18.4219C35.3574 18.4237 35.3574 18.4256 35.3574 18.4274C35.3574 18.4293 35.3574 18.4311 35.3574 18.433C35.3574 18.4348 35.3574 18.4367 35.3574 18.4385C35.3574 18.4403 35.3574 18.4422 35.3574 18.444C35.3574 18.4458 35.3574 18.4476 35.3574 18.4494C35.3574 18.4513 35.3574 18.4531 35.3574 18.4549C35.3574 18.4567 35.3574 18.4585 35.3574 18.4603C35.3574 18.4621 35.3574 18.4639 35.3574 18.4657C35.3574 18.4674 35.3574 18.4692 35.3574 18.471C35.3574 18.4728 35.3574 18.4746 35.3574 18.4763C35.3574 18.4781 35.3574 18.4799 35.3574 18.4816C35.3574 18.4834 35.3574 18.4851 35.3574 18.4869C35.3574 18.4886 35.3574 18.4904 35.3574 18.4921C35.3574 18.4939 35.3574 18.4956 35.3574 18.4974C35.3574 18.4991 35.3574 18.5008 35.3574 18.5025C35.3574 18.5043 35.3574 18.506 35.3574 18.5077C35.3574 18.5094 35.3574 18.5111 35.3574 18.5129C35.3574 18.5146 35.3574 18.5163 35.3574 18.518C35.3574 18.5197 35.3574 18.5214 35.3574 18.5231C35.3574 18.5247 35.3574 18.5264 35.3574 18.5281C35.3574 18.5298 35.3574 18.5315 35.3574 18.5331C35.3574 18.5348 35.3574 18.5365 35.3574 18.5382C35.3574 18.5398 35.3574 18.5415 35.3574 18.5431C35.3574 18.5448 35.3574 18.5464 35.3574 18.5481C35.3574 18.5497 35.3574 18.5514 35.3574 18.553C35.3574 18.5547 35.3574 18.5563 35.3574 18.5579C35.3574 18.5596 35.3574 18.5612 35.3574 18.5628C35.3574 18.5644 35.3574 18.5661 35.3574 18.5677C35.3574 18.5693 35.3574 18.5709 35.3574 18.5725C35.3574 18.5741 35.3574 18.5757 35.3574 18.5773C35.3574 18.5789 35.3574 18.5805 35.3574 18.5821C35.3574 18.5837 35.3574 18.5852 35.3574 18.5868C35.3574 18.5884 35.3574 18.59 35.3574 18.5916C35.3574 18.5931 35.3574 18.5947 35.3574 18.5963C35.3574 18.5978 35.3574 18.5994 35.3574 18.6009C35.3574 18.6025 35.3574 18.604 35.3574 18.6056C35.3574 18.6071 35.3574 18.6087 35.3574 18.6102C35.3574 18.6118 35.3574 18.6133 35.3574 18.6148C35.3574 18.6163 35.3574 18.6179 35.3574 18.6194C35.3574 18.6209 35.3574 18.6224 35.3574 18.6239C35.3574 18.6255 35.3574 18.627 35.3574 18.6285C35.3574 18.63 35.3574 18.6315 35.3574 18.633C35.3574 18.6345 35.3574 18.636 35.3574 18.6375C35.3574 18.6389 35.3574 18.6404 35.3574 18.6419C35.3574 18.6434 35.3574 18.6449 35.3574 18.6463C35.3574 18.6478 35.3574 18.6493 35.3574 18.6507C35.3574 18.6522 35.3574 18.6537 35.3574 18.6551C35.3574 18.6566 35.3574 18.658 35.3574 18.6595C35.3574 18.6609 35.3574 18.6624 35.3574 18.6638C35.3574 18.6653 35.3574 18.6667 35.3574 18.6681C35.3574 18.6696 35.3574 18.671 35.3574 18.6724C35.3574 18.6738 35.3574 18.6753 35.3574 18.6767C35.3574 18.6781 35.3574 18.6795 35.3574 18.6809C35.3574 18.6823 35.3574 18.6837 35.3574 18.6851C35.3574 18.6865 35.3574 18.6879 35.3574 18.6893C35.3574 18.6907 35.3574 18.6921 35.3574 18.6935C35.3574 18.6949 35.3574 18.6962 35.3574 18.6976C35.3574 18.699 35.3574 18.7004 35.3574 18.7017C35.3574 18.7031 35.3574 18.7045 35.3574 18.7058C35.3574 18.7072 35.3574 18.7086 35.3574 18.7099C35.3574 18.7113 35.3574 18.7126 35.3574 18.714C35.3574 18.7153 35.3574 18.7166 35.3574 18.718C35.3574 18.7193 35.3574 18.7207 35.3574 18.722C35.3574 18.7233 35.3574 18.7246 35.3574 18.726C35.3574 18.7273 35.3574 18.7286 35.3574 18.7299C35.3574 18.7312 35.3574 18.7325 35.3574 18.7339C35.3574 18.7352 35.3574 18.7365 35.3574 18.7378C35.3574 18.7391 35.3574 18.7404 35.3574 18.7417C35.3574 18.7418 35.3574 18.7569 35.3574 18.757C35.3574 18.7594 35.3574 18.8141 35.3574 18.8147C35.3574 18.8477 35.3574 18.9868 35.3574 18.9934C35.3574 19.0813 35.3574 19.1399 35.3574 19.1575C35.3574 19.1718 35.3574 19.1725 35.3574 19.178C35.3574 19.18 35.3574 19.1796 35.3574 19.1805C35.3574 19.1808 35.3574 19.1807 35.3574 19.1809C35.3574 19.1809 35.3574 19.1809 35.3574 19.1809C35.3574 19.1809 35.3574 19.1809 35.3574 19.1809C35.3574 19.1809 35.3574 19.1809 35.3574 19.1809C35.3574 19.1809 35.3574 19.1809 36.3574 19.1809C37.3574 19.1809 37.3574 19.1809 37.3574 19.1809C37.3574 19.1809 37.3574 19.1809 37.3574 19.1809C37.3574 19.1809 37.3574 19.1809 37.3574 19.1809C37.3574 19.1809 37.3574 19.1809 37.3574 19.1809C37.3574 19.1807 37.3574 19.1808 37.3574 19.1805C37.3574 19.1796 37.3574 19.18 37.3574 19.178C37.3574 19.1725 37.3574 19.1718 37.3574 19.1575C37.3574 19.1399 37.3574 19.0813 37.3574 18.9934C37.3574 18.9868 37.3574 18.8477 37.3574 18.8147C37.3574 18.8141 37.3574 18.7594 37.3574 18.757C37.3574 18.7569 37.3574 18.7418 37.3574 18.7417C37.3574 18.7404 37.3574 18.7391 37.3574 18.7378C37.3574 18.7365 37.3574 18.7352 37.3574 18.7339C37.3574 18.7325 37.3574 18.7312 37.3574 18.7299C37.3574 18.7286 37.3574 18.7273 37.3574 18.726C37.3574 18.7246 37.3574 18.7233 37.3574 18.722C37.3574 18.7207 37.3574 18.7193 37.3574 18.718C37.3574 18.7166 37.3574 18.7153 37.3574 18.714C37.3574 18.7126 37.3574 18.7113 37.3574 18.7099C37.3574 18.7086 37.3574 18.7072 37.3574 18.7058C37.3574 18.7045 37.3574 18.7031 37.3574 18.7017C37.3574 18.7004 37.3574 18.699 37.3574 18.6976C37.3574 18.6962 37.3574 18.6949 37.3574 18.6935C37.3574 18.6921 37.3574 18.6907 37.3574 18.6893C37.3574 18.6879 37.3574 18.6865 37.3574 18.6851C37.3574 18.6837 37.3574 18.6823 37.3574 18.6809C37.3574 18.6795 37.3574 18.6781 37.3574 18.6767C37.3574 18.6753 37.3574 18.6738 37.3574 18.6724C37.3574 18.671 37.3574 18.6696 37.3574 18.6681C37.3574 18.6667 37.3574 18.6653 37.3574 18.6638C37.3574 18.6624 37.3574 18.6609 37.3574 18.6595C37.3574 18.658 37.3574 18.6566 37.3574 18.6551C37.3574 18.6537 37.3574 18.6522 37.3574 18.6507C37.3574 18.6493 37.3574 18.6478 37.3574 18.6463C37.3574 18.6449 37.3574 18.6434 37.3574 18.6419C37.3574 18.6404 37.3574 18.6389 37.3574 18.6375C37.3574 18.636 37.3574 18.6345 37.3574 18.633C37.3574 18.6315 37.3574 18.63 37.3574 18.6285C37.3574 18.627 37.3574 18.6255 37.3574 18.6239C37.3574 18.6224 37.3574 18.6209 37.3574 18.6194C37.3574 18.6179 37.3574 18.6163 37.3574 18.6148C37.3574 18.6133 37.3574 18.6118 37.3574 18.6102C37.3574 18.6087 37.3574 18.6071 37.3574 18.6056C37.3574 18.604 37.3574 18.6025 37.3574 18.6009C37.3574 18.5994 37.3574 18.5978 37.3574 18.5963C37.3574 18.5947 37.3574 18.5931 37.3574 18.5916C37.3574 18.59 37.3574 18.5884 37.3574 18.5868C37.3574 18.5852 37.3574 18.5837 37.3574 18.5821C37.3574 18.5805 37.3574 18.5789 37.3574 18.5773C37.3574 18.5757 37.3574 18.5741 37.3574 18.5725C37.3574 18.5709 37.3574 18.5693 37.3574 18.5677C37.3574 18.5661 37.3574 18.5644 37.3574 18.5628C37.3574 18.5612 37.3574 18.5596 37.3574 18.5579C37.3574 18.5563 37.3574 18.5547 37.3574 18.553C37.3574 18.5514 37.3574 18.5497 37.3574 18.5481C37.3574 18.5464 37.3574 18.5448 37.3574 18.5431C37.3574 18.5415 37.3574 18.5398 37.3574 18.5382C37.3574 18.5365 37.3574 18.5348 37.3574 18.5331C37.3574 18.5315 37.3574 18.5298 37.3574 18.5281C37.3574 18.5264 37.3574 18.5247 37.3574 18.5231C37.3574 18.5214 37.3574 18.5197 37.3574 18.518C37.3574 18.5163 37.3574 18.5146 37.3574 18.5129C37.3574 18.5111 37.3574 18.5094 37.3574 18.5077C37.3574 18.506 37.3574 18.5043 37.3574 18.5025C37.3574 18.5008 37.3574 18.4991 37.3574 18.4974C37.3574 18.4956 37.3574 18.4939 37.3574 18.4921C37.3574 18.4904 37.3574 18.4886 37.3574 18.4869C37.3574 18.4851 37.3574 18.4834 37.3574 18.4816C37.3574 18.4799 37.3574 18.4781 37.3574 18.4763C37.3574 18.4746 37.3574 18.4728 37.3574 18.471C37.3574 18.4692 37.3574 18.4674 37.3574 18.4657C37.3574 18.4639 37.3574 18.4621 37.3574 18.4603C37.3574 18.4585 37.3574 18.4567 37.3574 18.4549C37.3574 18.4531 37.3574 18.4513 37.3574 18.4494C37.3574 18.4476 37.3574 18.4458 37.3574 18.444C37.3574 18.4422 37.3574 18.4403 37.3574 18.4385C37.3574 18.4367 37.3574 18.4348 37.3574 18.433C37.3574 18.4311 37.3574 18.4293 37.3574 18.4274C37.3574 18.4256 37.3574 18.4237 37.3574 18.4219C37.3574 18.42 37.3574 18.4181 37.3574 18.4163C37.3574 18.4144 37.3574 18.4125 37.3574 18.4107C37.3574 18.4088 37.3574 18.4069 37.3574 18.405C37.3574 18.4031 37.3574 18.4012 37.3574 18.3993C37.3574 18.3974 37.3574 18.3955 37.3574 18.3936C37.3574 18.3917 37.3574 18.3898 37.3574 18.3879C37.3574 18.386 37.3574 18.3841 37.3574 18.3821C37.3574 18.3802 37.3574 18.3783 37.3574 18.3763C37.3574 18.3744 37.3574 18.3725 37.3574 18.3705C37.3574 18.3686 37.3574 18.3666 37.3574 18.3647C37.3574 18.3627 37.3574 18.3608 37.3574 18.3588C37.3574 18.3568 37.3574 18.3549 37.3574 18.3529C37.3574 18.3509 37.3574 18.349 37.3574 18.347C37.3574 18.345 37.3574 18.343 37.3574 18.341C37.3574 18.339 37.3574 18.337 37.3574 18.335C37.3574 18.333 37.3574 18.331 37.3574 18.329C37.3574 18.327 37.3574 18.325 37.3574 18.323C37.3574 18.321 37.3574 18.3189 37.3574 18.3169C37.3574 18.3149 37.3574 18.3129 37.3574 18.3108C37.3574 18.3088 37.3574 18.3067 37.3574 18.3047C37.3574 18.3026 37.3574 18.3006 37.3574 18.2985C37.3574 18.2965 37.3574 18.2944 37.3574 18.2923C37.3574 18.2903 37.3574 18.2882 37.3574 18.2861C37.3574 18.2841 37.3574 18.282 37.3574 18.2799C37.3574 18.2778 37.3574 18.2757 37.3574 18.2736C37.3574 18.2715 37.3574 18.2694 37.3574 18.2673C37.3574 18.2652 37.3574 18.2631 37.3574 18.261C37.3574 18.2589 37.3574 18.2568 37.3574 18.2546C37.3574 18.2525 37.3574 18.2504 37.3574 18.2482C37.3574 18.2461 37.3574 18.244 37.3574 18.2418C37.3574 18.2397 37.3574 18.2375 37.3574 18.2354C37.3574 18.2332 37.3574 18.2311 37.3574 18.2289C37.3574 18.2267 37.3574 18.2246 37.3574 18.2224C37.3574 18.2202 37.3574 18.218 37.3574 18.2159C37.3574 18.2137 37.3574 18.2115 37.3574 18.2093C37.3574 18.2071 37.3574 18.2049 37.3574 18.2027C37.3574 18.2005 37.3574 18.1983 37.3574 18.1961C37.3574 18.1939 37.3574 18.1916 37.3574 18.1894C37.3574 18.1872 37.3574 18.185 37.3574 18.1827C37.3574 18.1805 37.3574 18.1783 37.3574 18.176C37.3574 18.1738 37.3574 18.1715 37.3574 18.1693C37.3574 18.167 37.3574 18.1648 37.3574 18.1625C37.3574 18.1602 37.3574 18.158 37.3574 18.1557C37.3574 18.1534 37.3574 18.1512 37.3574 18.1489C37.3574 18.1466 37.3574 18.1443 37.3574 18.142C37.3574 18.1397 37.3574 18.1374 37.3574 18.1351C37.3574 18.1328 37.3574 18.1305 37.3574 18.1282C37.3574 18.1259 37.3574 18.1235 37.3574 18.1212C37.3574 18.1189 37.3574 18.1166 37.3574 18.1142C37.3574 18.1119 37.3574 18.1096 37.3574 18.1072C37.3574 18.1049 37.3574 18.1025 37.3574 18.1002C37.3574 18.0978 37.3574 18.0955 37.3574 18.0931C37.3574 18.0907 37.3574 18.0884 37.3574 18.086C37.3574 18.0836 37.3574 18.0812 37.3574 18.0788C37.3574 18.0765 37.3574 18.0741 37.3574 18.0717C37.3574 18.0693 37.3574 18.0669 37.3574 18.0645C37.3574 18.0621 37.3574 18.0597 37.3574 18.0572C37.3574 18.0548 37.3574 18.0524 37.3574 18.05C37.3574 18.0475 37.3574 18.0451 37.3574 18.0427C37.3574 18.0402 37.3574 18.0378 37.3574 18.0353C37.3574 18.0329 37.3574 18.0304 37.3574 18.028C37.3574 18.0255 37.3574 18.0231 37.3574 18.0206C37.3574 18.0181 37.3574 18.0157 37.3574 18.0132C37.3574 18.0107 37.3574 18.0082 37.3574 18.0057C37.3574 18.0032 37.3574 18.0007 37.3574 17.9982C37.3574 17.9957 37.3574 17.9932 37.3574 17.9907C37.3574 17.9882 37.3574 17.9857 37.3574 17.9832C37.3574 17.9806 37.3574 17.9781 37.3574 17.9756C37.3574 17.9731 37.3574 17.9705 37.3574 17.968C37.3574 17.9654 37.3574 17.9629 37.3574 17.9603C37.3574 17.9578 37.3574 17.9552 37.3574 17.9527C37.3574 17.9501 37.3574 17.9475 37.3574 17.9449C37.3574 17.9424 37.3574 17.9398 37.3574 17.9372C37.3574 17.9346 37.3574 17.932 37.3574 17.9294C37.3574 17.9268 37.3574 17.9242 37.3574 17.9216C37.3574 17.919 37.3574 17.9164 37.3574 17.9138C37.3574 17.9112 37.3574 17.9085 37.3574 17.9059C37.3574 17.9033 37.3574 17.9007 37.3574 17.898C37.3574 17.8954 37.3574 17.8927 37.3574 17.8901C37.3574 17.8874 37.3574 17.8848 37.3574 17.8821C37.3574 17.8795 37.3574 17.8768 37.3574 17.8741C37.3574 17.8714 37.3574 17.8688 37.3574 17.8661C37.3574 17.8634 37.3574 17.8607 37.3574 17.858C37.3574 17.8553 37.3574 17.8526 37.3574 17.8499C37.3574 17.8472 37.3574 17.8445 37.3574 17.8418C37.3574 17.8391 37.3574 17.8363 37.3574 17.8336C37.3574 17.8309 37.3574 17.8282 37.3574 17.8254C37.3574 17.8227 37.3574 17.8199 37.3574 17.8172C37.3574 17.8144 37.3574 17.8117 37.3574 17.8089C37.3574 17.8062 37.3574 17.8034 37.3574 17.8006C37.3574 17.7978 37.3574 17.7951 37.3574 17.7923C37.3574 17.7895 37.3574 17.7867 37.3574 17.7839C37.3574 17.7811 37.3574 17.7783 37.3574 17.7755C37.3574 17.7727 37.3574 17.7699 37.3574 17.7671C37.3574 17.7643 37.3574 17.7615 37.3574 17.7586C37.3574 17.7558 37.3574 17.753 37.3574 17.7501C37.3574 17.7473 37.3574 17.7444 37.3574 17.7416C37.3574 17.7387 37.3574 17.7359 37.3574 17.733C37.3574 17.7302 37.3574 17.7273 37.3574 17.7244C37.3574 17.7216 37.3574 17.7187 37.3574 17.7158C37.3574 17.7129 37.3574 17.71 37.3574 17.7071C37.3574 17.7042 37.3574 17.7013 37.3574 17.6984C37.3574 17.6955 37.3574 17.6926 37.3574 17.6897C37.3574 17.6868 37.3574 17.6838 37.3574 17.6809H35.3574Z"
  />
</svg>