<svg width="24" height="24" viewBox="0 0 24 24" fill="none" xmlns="http://www.w3.org/2000/svg">
  <path
    d="M18.4 8H5.6C4.71634 8 4 8.77604 4 9.73333V19.2667C4 20.224 4.71634 21 5.6 21H18.4C19.2837 21 20 20.224 20 19.2667V9.73333C20 8.77604 19.2837 8 18.4 8Z"
    stroke="currentColor" stroke-width="var(--stroke-width, 1.5)" stroke-linecap="round" stroke-linejoin="round" />
  <path d="M9 14H9.01" stroke="currentColor" stroke-width="var(--stroke-width, 3)" stroke-linecap="round"
    stroke-linejoin="round" />
  <path d="M15 14H15.01" stroke="currentColor" stroke-width="var(--stroke-width, 3)" stroke-linecap="round"
    stroke-linejoin="round" />
  <path d="M17 3L12 8L7 3" stroke="currentColor" stroke-width="var(--stroke-width, 1.5)" stroke-linecap="round"
    stroke-linejoin="round" />
  <path d="M21 16C21 16 23 16 23 14C23 12 21 12 21 12" stroke="currentColor" stroke-width="var(--stroke-width, 1.5)"
    stroke-linecap="round" stroke-linejoin="round" />
  <path d="M3 16C3 16 1 16 1 14C1 12 3 12 3 12" stroke="currentColor" stroke-width="var(--stroke-width, 1.5)"
    stroke-linecap="round" stroke-linejoin="round" />
</svg>