<svg width="24" height="24" viewBox="0 0 24 24" fill="none" xmlns="http://www.w3.org/2000/svg">
  <path
    d="M21.2104 15.8901C20.5742 17.3946 19.5792 18.7203 18.3123 19.7514C17.0454 20.7825 15.5452 21.4875 13.9428 21.8049C12.3405 22.1222 10.6848 22.0422 9.12055 21.5719C7.55627 21.1015 6.13103 20.2551 4.96942 19.1067C3.80782 17.9583 2.94522 16.5428 2.45704 14.984C1.96886 13.4252 1.86996 11.7706 2.169 10.1647C2.46804 8.55886 3.1559 7.05071 4.17245 5.77211C5.189 4.49351 6.50329 3.4834 8.0004 2.83008"
    stroke="currentColor" stroke-width="var(--stroke-width, 1.5)" stroke-linecap="round" stroke-linejoin="round" />
  <path
    d="M22 12C22 10.6868 21.7413 9.38642 21.2388 8.17317C20.7362 6.95991 19.9997 5.85752 19.0711 4.92893C18.1425 4.00035 17.0401 3.26375 15.8268 2.7612C14.6136 2.25866 13.3132 2 12 2V12H22Z"
    stroke="currentColor" stroke-width="var(--stroke-width, 1.5)" stroke-linecap="round" stroke-linejoin="round" />
</svg>