<svg width="24" height="24" viewBox="0 0 24 24" fill="none" xmlns="http://www.w3.org/2000/svg">
  <path
    d="M16 18C16 19.6569 17.3431 21 19 21C20.6569 21 22 19.6569 22 18C22 16.3431 20.6569 15 19 15C17.3431 15 16 16.3431 16 18Z"
    stroke="currentColor" stroke-width="var(--stroke-width, 1.5)" stroke-linecap="round" stroke-linejoin="round" />
  <path
    d="M9 6C9 7.65685 10.3431 9 12 9C13.6569 9 15 7.65685 15 6C15 4.34315 13.6569 3 12 3C10.3431 3 9 4.34315 9 6Z"
    stroke="currentColor" stroke-width="var(--stroke-width, 1.5)" stroke-linecap="round" stroke-linejoin="round" />
  <path
    d="M2 18C2 19.6569 3.34315 21 5 21C6.65685 21 8 19.6569 8 18C8 16.3431 6.65685 15 5 15C3.34315 15 2 16.3431 2 18Z"
    stroke="currentColor" stroke-width="var(--stroke-width, 1.5)" stroke-linecap="round" stroke-linejoin="round" />
  <path d="M10.4902 8.58984L6.51023 15.4198" stroke="currentColor" stroke-width="var(--stroke-width, 1.5)"
    stroke-linecap="round" stroke-linejoin="round" />
  <path d="M15.905 18.4421L8.00002 18.4288" stroke="currentColor" stroke-width="var(--stroke-width, 1.5)"
    stroke-linecap="round" stroke-linejoin="round" />
  <path d="M17.4902 15.4098L13.5102 8.58984" stroke="currentColor" stroke-width="var(--stroke-width, 1.5)"
    stroke-linecap="round" stroke-linejoin="round" />
</svg>