<svg width="24" height="24" viewBox="0 0 24 24" fill="none" xmlns="http://www.w3.org/2000/svg">
<path d="M12 22C17.5228 22 22 17.5228 22 12C22 6.47715 17.5228 2 12 2C6.47715 2 2 6.47715 2 12C2 17.5228 6.47715 22 12 22Z" stroke="currentColor" stroke-width="1.5" stroke-linecap="round" stroke-linejoin="round"/>
<path d="M9.08984 9.00002C9.32495 8.33169 9.789 7.76813 10.3998 7.40915C11.0106 7.05018 11.7287 6.91896 12.427 7.03873C13.1253 7.15851 13.7587 7.52154 14.2149 8.06355C14.6712 8.60555 14.9209 9.29154 14.9198 10C14.9198 12 11.9198 13 11.9198 13" stroke="currentColor" stroke-width="1.5" stroke-linecap="round" stroke-linejoin="round"/>
<path d="M12 17H12.01" stroke="currentColor" stroke-width="1.5" stroke-linecap="round" stroke-linejoin="round"/>
</svg>
