<svg width="24" height="24" viewBox="0 0 24 24" fill="none" xmlns="http://www.w3.org/2000/svg">
<g clip-path="url(#clip0_2469_67)">
<path d="M23 15.2222C23 15.6937 22.8104 16.1459 22.4728 16.4793C22.1352 16.8127 21.6774 17 21.2 17H6.8C6.32261 17 5.86477 16.8127 5.52721 16.4793C5.18964 16.1459 5 15.6937 5 15.2222V2.77778C5 2.30628 5.18964 1.8541 5.52721 1.5207C5.86477 1.1873 6.32261 1 6.8 1H11.3L13.1 3.66667H21.2C21.6774 3.66667 22.1352 3.85397 22.4728 4.18737C22.8104 4.52076 23 4.97295 23 5.44444V15.2222Z" stroke="#070707" stroke-width="1.5" stroke-linecap="round" stroke-linejoin="round"/>
<path d="M2.55555 23L13.4444 23C14.3036 23 15 22.3036 15 21.4444L15 10.5556C15 9.69644 14.3036 9 13.4444 9L2.55556 9C1.69645 9 1 9.69644 1 10.5556L0.999999 21.4444C0.999999 22.3036 1.69644 23 2.55555 23Z" fill="white" stroke="#070707" stroke-width="1.5" stroke-linecap="round" stroke-linejoin="round"/>
<path d="M5.99999 13.3402L10.6598 13.3197L10.6804 17.9795" stroke="#070707" stroke-width="1.5" stroke-linecap="round" stroke-linejoin="round"/>
<path d="M10.6598 13.3196L5 19" stroke="#070707" stroke-width="1.5" stroke-linecap="round" stroke-linejoin="round"/>
</g>
<defs>
<clipPath id="clip0_2469_67">
<rect width="24" height="24" fill="white"/>
</clipPath>
</defs>
</svg>
