<svg width="24" height="24" viewBox="0 0 24 24" fill="none" xmlns="http://www.w3.org/2000/svg">
  <g clip-path="url(#clip0_3710_3344)">
    <path
      d="M8.02924 22.7404L8.03207 22.7415C8.38445 22.8686 8.77188 22.6886 8.9022 22.3386C8.90229 22.3384 8.90237 22.3382 8.90246 22.3379L11.2864 16.0558C11.3546 15.884 11.3493 15.6933 11.273 15.5264C11.1984 15.3571 11.0578 15.227 10.8835 15.1654C9.68947 14.7129 8.83996 13.5724 8.83996 12.2183C8.83996 10.4669 10.2485 9.05834 12 9.05834C13.7514 9.05834 15.16 10.4669 15.16 12.2183C15.16 13.5724 14.3105 14.7129 13.1164 15.1654C12.9421 15.227 12.8015 15.3571 12.7269 15.5264C12.6506 15.6934 12.6454 15.884 12.7136 16.0559L15.0975 22.3379C15.0975 22.3382 15.0976 22.3384 15.0977 22.3386C15.228 22.6886 15.6155 22.8686 15.9679 22.7415L15.9679 22.7415L15.9707 22.7404C20.2179 21.1351 23.24 17.0235 23.24 12.2183C23.24 6.01601 18.2023 0.978345 12 0.978345C5.79763 0.978345 0.759961 6.01601 0.759961 12.2183C0.759961 17.0235 3.78206 21.1351 8.02924 22.7404ZM12 2.33834C17.462 2.33834 21.88 6.7563 21.88 12.2183C21.88 16.1971 19.493 19.5787 16.1018 21.1439L14.1991 16.1215C15.5723 15.35 16.52 13.9099 16.52 12.2183C16.52 9.72851 14.4898 7.69834 12 7.69834C9.51013 7.69834 7.47996 9.72851 7.47996 12.2183C7.47996 13.9099 8.42763 15.35 9.8008 16.1215L7.89816 21.1439C4.50691 19.5787 2.11996 16.1971 2.11996 12.2183C2.11996 6.7563 6.53792 2.33834 12 2.33834Z"
      fill="currentColor" stroke="currentColor" stroke-width="0.4" />
  </g>
  <defs>
    <clipPath id="clip0_3710_3344">
      <rect width="24" height="24" fill="currentColor" transform="translate(0 0.218384)" />
    </clipPath>
  </defs>
</svg>