<svg width="22" height="22" viewBox="0 0 22 22" fill="none" xmlns="http://www.w3.org/2000/svg">
  <path
    d="M18.3333 14.6666V18.3333C18.3333 18.5764 18.2368 18.8096 18.0648 18.9815C17.8929 19.1534 17.6598 19.25 17.4167 19.25H3.66667C3.42355 19.25 3.19039 19.1534 3.01849 18.9815C2.84658 18.8096 2.75 18.5764 2.75 18.3333V7.33329C2.75 7.09018 2.84658 6.85702 3.01849 6.68511C3.19039 6.5132 3.42355 6.41663 3.66667 6.41663H17.4167C17.6598 6.41663 17.8929 6.5132 18.0648 6.68511C18.2368 6.85702 18.3333 7.09018 18.3333 7.33329V11"
    stroke="currentColor" stroke-width="1.5" stroke-linecap="round" stroke-linejoin="round" />
  <path
    d="M18.3333 11H15.5833C15.0771 11 14.6667 11.4104 14.6667 11.9167V13.75C14.6667 14.2563 15.0771 14.6667 15.5833 14.6667H18.3333C18.8396 14.6667 19.25 14.2563 19.25 13.75V11.9167C19.25 11.4104 18.8396 11 18.3333 11Z"
    stroke="currentColor" stroke-width="1.5" stroke-linecap="round" stroke-linejoin="round" />
  <path
    d="M5.5 6.41668L12.9525 3.10752C13.1673 3.01142 13.4108 3.0016 13.6326 3.08009C13.8545 3.15859 14.0376 3.31938 14.1442 3.52918L15.5833 6.41668"
    stroke="currentColor" stroke-width="1.5" stroke-linecap="round" stroke-linejoin="round" />
</svg>