<svg width="24" height="24" viewBox="0 0 24 24" fill="none" xmlns="http://www.w3.org/2000/svg">
<path d="M19.6512 5.34399C18.217 4.71467 16.6939 4.256 15.104 4C14.9039 4.33067 14.6815 4.77866 14.5259 5.13067C12.8349 4.89599 11.1561 4.89599 9.48839 5.13067C9.33273 4.77866 9.09925 4.33067 8.91023 4C7.3093 4.256 5.78616 4.71467 4.36197 5.34399C1.48247 9.41865 0.704216 13.3973 1.09334 17.3226C3.0056 18.6559 4.85117 19.4666 6.66449 20C7.1092 19.424 7.50945 18.8053 7.8541 18.1546C7.19815 17.92 6.57555 17.632 5.97519 17.2906C6.13084 17.184 6.28649 17.0667 6.43102 16.9493C10.0554 18.5387 13.9811 18.5387 17.561 16.9493C17.7167 17.0667 17.8612 17.184 18.0169 17.2906C17.4165 17.632 16.7939 17.92 16.1379 18.1546C16.4826 18.8053 16.8829 19.424 17.3275 20C19.1398 19.4666 20.9964 18.6559 22.8987 17.3226C23.3767 12.7787 22.1416 8.83202 19.6512 5.34399ZM8.35439 14.9013C7.26483 14.9013 6.37541 13.952 6.37541 12.7893C6.37541 11.6267 7.2426 10.6773 8.35439 10.6773C9.45503 10.6773 10.3555 11.6267 10.3333 12.7893C10.3333 13.952 9.45503 14.9013 8.35439 14.9013ZM15.6599 14.9013C14.5703 14.9013 13.6798 13.952 13.6798 12.7893C13.6798 11.6267 14.5481 10.6773 15.6599 10.6773C16.7606 10.6773 17.6611 11.6267 17.6389 12.7893C17.6389 13.952 16.7717 14.9013 15.6599 14.9013Z" fill="currentColor"/>
</svg>
