<svg width="24" height="24" viewBox="0 0 24 24" fill="none" xmlns="http://www.w3.org/2000/svg">
<g id="Type=instagram">
<path id="Exclude" fill-rule="evenodd" clip-rule="evenodd" d="M17 2H7C4.23858 2 2 4.23858 2 7V17C2 19.7614 4.23858 22 7 22H17C19.7614 22 22 19.7614 22 17V7C22 4.23858 19.7614 2 17 2ZM12.5197 8.73828C11.8435 8.63801 11.1529 8.75351 10.5461 9.06835C9.93935 9.3832 9.4473 9.88135 9.13996 10.492C8.83262 11.1026 8.72565 11.7945 8.83425 12.4695C8.94285 13.1444 9.2615 13.7679 9.74488 14.2512C10.2283 14.7346 10.8517 15.0533 11.5266 15.1619C12.2016 15.2705 12.8935 15.1635 13.5041 14.8561C14.1148 14.5488 14.6129 14.0568 14.9277 13.45C15.2426 12.8432 15.3581 12.1526 15.2578 11.4764C15.1555 10.7867 14.8341 10.1481 14.3411 9.65503C13.848 9.16197 13.2094 8.84056 12.5197 8.73828ZM9.85526 7.73692C10.7421 7.27676 11.7514 7.10796 12.7397 7.25451C13.7478 7.404 14.6811 7.87375 15.4017 8.59437C16.1224 9.315 16.5921 10.2483 16.7416 11.2564C16.8881 12.2447 16.7193 13.254 16.2592 14.1408C15.799 15.0277 15.071 15.7468 14.1785 16.196C13.2861 16.6452 12.2748 16.8015 11.2883 16.6428C10.3019 16.4841 9.39069 16.0184 8.68422 15.3119C7.97775 14.6054 7.51203 13.6942 7.3533 12.7078C7.19457 11.7214 7.35092 10.71 7.80011 9.81758C8.24929 8.92515 8.96844 8.19707 9.85526 7.73692ZM17.5 5.75C17.0858 5.75 16.75 6.08579 16.75 6.5C16.75 6.91421 17.0858 7.25 17.5 7.25H17.51C17.9242 7.25 18.26 6.91421 18.26 6.5C18.26 6.08579 17.9242 5.75 17.51 5.75H17.5Z" fill="currentColor"/>
</g>
</svg>
