<svg width="24" height="24" viewBox="0 0 24 24" fill="none" xmlns="http://www.w3.org/2000/svg">
  <path
    d="M16 9.00012C17.5913 9.00012 19.1175 9.63226 20.2427 10.7575C21.3679 11.8827 22 13.4088 22 15.0001V22.0001H18V15.0001C18 14.4697 17.7893 13.961 17.4143 13.5859C17.0392 13.2108 16.5305 13.0001 16 13.0001C15.4696 13.0001 14.9609 13.2108 14.5858 13.5859C14.2108 13.961 14 14.4697 14 15.0001V22.0001H10.0001V15.0001C10.0001 13.4088 10.6322 11.8827 11.7574 10.7575C12.8826 9.63226 14.4087 9.00012 16 9.00012Z"
    fill="currentColor" />
  <path d="M5.99999 10.0001H2V22.0001H5.99999V10.0001Z" fill="currentColor" />
  <path
    d="M3.99999 6.99999C5.10456 6.99999 5.99999 6.10456 5.99999 4.99999C5.99999 3.89543 5.10456 3 3.99999 3C2.89543 3 2 3.89543 2 4.99999C2 6.10456 2.89543 6.99999 3.99999 6.99999Z"
    fill="currentColor" />
</svg>