<svg width="24" height="24" viewBox="0 0 24 24" fill="none" xmlns="http://www.w3.org/2000/svg">
<path d="M21.2104 15.89C20.5742 17.3945 19.5792 18.7202 18.3123 19.7513C17.0454 20.7824 15.5452 21.4874 13.9428 21.8048C12.3405 22.1221 10.6848 22.0422 9.12055 21.5718C7.55627 21.1015 6.13103 20.2551 4.96942 19.1067C3.80782 17.9582 2.94522 16.5428 2.45704 14.984C1.96886 13.4252 1.86996 11.7705 2.169 10.1646C2.46804 8.55879 3.1559 7.05064 4.17245 5.77204C5.189 4.49344 6.50329 3.48333 8.0004 2.83001M21.2392 8.17317C21.6395 9.13964 21.8851 10.1614 21.9684 11.2009C21.989 11.4577 21.9993 11.5861 21.9483 11.7017C21.9057 11.7983 21.8213 11.8898 21.7284 11.9399C21.6172 12 21.4783 12 21.2004 12H12.8004C12.5204 12 12.3804 12 12.2734 11.9455C12.1793 11.8976 12.1028 11.8211 12.0549 11.727C12.0004 11.62 12.0004 11.48 12.0004 11.2V2.80001C12.0004 2.52214 12.0004 2.38321 12.0605 2.27199C12.1107 2.17909 12.2021 2.0947 12.2987 2.0521C12.4144 2.00111 12.5428 2.0114 12.7996 2.03199C13.839 2.11533 14.8608 2.36089 15.8272 2.76121C17.0405 3.26376 18.1429 4.00035 19.0715 4.92894C20.0001 5.85753 20.7367 6.95992 21.2392 8.17317Z" stroke="currentColor" stroke-width="2" stroke-linecap="round" stroke-linejoin="round"/>
</svg>
