<svg width="14" height="14" viewBox="0 0 14 14" fill="none" xmlns="http://www.w3.org/2000/svg">
<g >
<path d="M3.10116 11.3391C3.45602 10.5031 4.28453 9.91669 5.24999 9.91669H8.74999C9.71545 9.91669 10.544 10.5031 10.8988 11.3391M9.33332 5.54169C9.33332 6.83035 8.28865 7.87502 6.99999 7.87502C5.71133 7.87502 4.66666 6.83035 4.66666 5.54169C4.66666 4.25302 5.71133 3.20835 6.99999 3.20835C8.28865 3.20835 9.33332 4.25302 9.33332 5.54169ZM12.8333 7.00002C12.8333 10.2217 10.2217 12.8334 6.99999 12.8334C3.77833 12.8334 1.16666 10.2217 1.16666 7.00002C1.16666 3.77836 3.77833 1.16669 6.99999 1.16669C10.2217 1.16669 12.8333 3.77836 12.8333 7.00002Z" stroke="currentColor" stroke-linecap="round" stroke-linejoin="round"/>
</g>
<defs>
<clipPath id="clip0_2639_8224">
<rect width="14" height="14" fill="currentColor"/>
</clipPath>
</defs>
</svg>
